<svg width="229" height="265" viewBox="0 0 229 265" fill="none" xmlns="http://www.w3.org/2000/svg">
<path d="M70.0467 189.465C73.2172 177.854 66.7413 166.065 60.8506 155.479C54.1974 143.517 47.9379 131.044 45.9837 117.606C42.3947 92.9189 55.0344 66.8238 76.7672 53.2585C98.4966 39.6932 128.145 39.1435 150.616 51.542C159.145 56.2482 166.767 62.7915 171.487 71.0903C177.058 80.8927 178.25 92.4117 178.523 103.583C178.817 115.535 178.034 128.029 171.888 138.417C166.837 146.95 158.656 153.245 151.176 159.923C139.795 170.083 129.684 181.556 121.123 194.019C120.357 195.136 119.566 196.292 118.4 197.019C116.669 198.094 114.452 198.019 112.399 197.867C97.7944 196.785 83.3567 193.696 70.0467 189.465Z" fill="white"/>
<path d="M68.1174 190.504C86.6052 194.93 105.547 197.608 124.577 198.487C123.283 213.904 121.903 229.661 115.374 243.793C112.186 250.695 107.31 257.479 99.9471 260.093C91.2157 263.193 81.5869 259.671 73.0647 256.071C69.7593 254.678 66.3583 253.188 63.9786 250.574C59.1058 245.226 60.0242 237.151 61.2336 230.132C63.5849 216.482 65.9363 202.828 68.1174 190.504Z" fill="#ACD4F7"/>
<g opacity="0.1294">
<path d="M182.066 112.705C180.825 110.985 178.023 110.917 176.665 112.549C175.612 114.23 176.012 113.396 175.257 115.932C175.168 116.262 175.073 116.595 174.973 116.925C174.59 117.929 173.331 121.259 172.941 121.993C173.558 121.053 173.533 121.096 172.867 122.117C169.242 128.408 168.391 130.27 164.298 135.189C163.22 136.626 161.099 139.984 157.528 143.155C153.209 147.379 141.952 154.848 135.079 161.738C133.075 163.689 128.635 168.136 127.982 168.92C127.965 168.938 127.958 168.945 127.936 168.963C125.408 171.264 122.851 173.573 120.783 176.286C116.708 181.794 117.006 181.733 114.335 185.752C112.736 188.468 110.289 191.884 109.987 194.856C109.97 195.093 109.991 195.313 110.005 195.536C108.665 197.104 107.895 199.179 108.186 201.633C109.083 207.722 108.026 214.485 105.93 225.132C103.7 236.176 104.075 238.304 99.5253 247.915C97.0569 252.486 98.7131 249.762 95.5177 254.089C94.7482 255.156 93.6666 256.096 93.436 257.423C91.4145 263.136 99.1601 267.324 103.387 263.331C109.381 258.625 112.956 251.702 115.775 244.904C118.797 236.03 120.457 228.058 123.62 218.269C124.954 214.021 125.376 209.577 125.67 205.165C125.691 202.356 126.152 199.182 124.507 196.707C124.503 196.7 124.496 196.693 124.496 196.693C123.961 196.685 123.422 196.678 122.886 196.668C121.957 196.646 121.028 196.615 120.098 196.568C126.085 184.354 130.38 177.722 139.008 169.321C144.555 164.512 150.57 160.22 156.358 155.688C161.812 151.656 166.816 146.992 170.93 141.679C173.324 137.895 172.97 138.239 174.573 135.48C174.831 135.033 174.456 135.604 174.236 135.948C175.122 134.604 175.952 133.228 176.768 131.841C178.069 129.717 178.988 127.415 179.747 125.068C179.754 125.061 179.768 125.029 179.797 124.961C181.417 120.361 183.96 115.606 182.066 112.705Z" fill="black"/>
</g>
<g opacity="0.1294">
<path d="M113.818 186.528C114.002 186.252 114.176 185.996 114.335 185.752C114.392 185.652 114.46 185.549 114.513 185.454C114.282 185.808 114.048 186.17 113.818 186.528Z" fill="black"/>
</g>
<path d="M93.2229 263.647C88.1302 263.647 83.4878 262.526 80.8102 261.721C75.3202 260.072 62.2728 254.99 59.6306 243.46C58.6766 239.308 59.3221 234.977 59.8931 231.154L66.1242 189.352C66.1739 189.011 66.369 188.71 66.6527 188.522C66.94 188.334 67.291 188.274 67.6244 188.362C78.4057 191.206 114.764 196.948 124.836 197.395C125.163 197.409 125.468 197.555 125.684 197.799C125.9 198.044 126.01 198.363 125.985 198.69C124.833 214.762 122.304 227.42 116.967 243.836C115.275 249.039 113.264 254.444 108.962 258.306C104.387 262.416 98.5604 263.647 93.2229 263.647ZM68.316 191.029L62.2799 231.516C61.716 235.304 61.1308 239.215 61.9819 242.928C64.3403 253.22 76.4197 257.888 81.5054 259.416C86.6017 260.948 99.3194 263.732 107.352 256.519C111.211 253.054 113.083 247.989 114.676 243.099C119.878 227.093 122.304 215.213 123.489 199.746C112.317 198.963 80.0797 193.873 68.316 191.029Z" fill="black"/>
<path d="M121.024 198.941C120.9 198.941 120.772 198.923 120.648 198.881C120.013 198.675 119.669 197.991 119.875 197.359C124.645 182.734 136.926 172.268 148.8 162.15C159.89 152.698 171.355 142.924 176.477 129.873C179.232 122.851 181.764 105.105 178.445 89.312C175.987 77.6157 171.306 68.4232 164.535 61.997C151.86 49.9637 128.485 39.3065 108.32 42.2253C89.1088 45.0093 72.5218 53.0066 61.6128 64.7455C51.5869 75.5375 45.7388 89.961 45.15 105.36C44.5968 119.755 48.583 134.498 56.6726 147.996C57.7862 149.854 58.9956 151.716 60.1659 153.518C62.6165 157.288 65.1452 161.189 67.0284 165.377C70.4082 172.91 71.6211 181.191 70.5359 189.327C70.4472 189.986 69.8372 190.447 69.1811 190.362C68.5214 190.273 68.0568 189.667 68.1455 189.007C69.1704 181.315 68.0249 173.484 64.8295 166.363C63.0244 162.345 60.5454 158.525 58.148 154.83C56.967 153.011 55.7469 151.131 54.6085 149.237C46.2743 135.335 42.1746 120.131 42.742 105.268C43.3556 89.2908 49.4307 74.3175 59.8503 63.1035C71.1317 50.9603 88.2257 42.697 107.98 39.8385C128.9 36.8063 153.109 47.811 166.202 60.2486C173.334 67.0224 178.25 76.6333 180.81 88.8191C184.229 105.09 181.587 123.465 178.725 130.756C173.384 144.371 161.684 154.344 150.367 163.987C138.745 173.892 126.73 184.131 122.173 198.111C122.006 198.618 121.531 198.941 121.024 198.941Z" fill="black"/>
<path d="M105.764 195.952C105.7 195.952 105.632 195.948 105.565 195.934C104.909 195.824 104.462 195.203 104.572 194.547L104.611 194.306C106.945 180.007 109.899 165.14 113.399 150.12C114.938 143.517 116.478 137.509 119.286 131.998C114.984 130.2 111.353 126.855 109.221 123.242C108.835 122.586 108.477 121.908 108.15 121.209C107.384 122.263 106.586 123.302 105.756 124.316C101.323 129.764 96.9789 132.296 92.4961 132.04C91.0066 131.959 89.5915 131.551 88.2616 130.977C88.8822 135.364 89.1518 139.708 89.2972 143.825C89.8575 159.664 88.7226 175.613 85.9209 191.231C85.8039 191.887 85.1726 192.324 84.5201 192.207C83.864 192.09 83.4278 191.462 83.5448 190.806C86.3146 175.357 87.4388 159.582 86.882 143.914C86.7189 139.332 86.3997 134.466 85.6017 129.597C84.9917 129.232 84.4066 128.852 83.8427 128.48C78.2463 124.784 71.4442 119.606 68.4687 112.326C67.1742 109.166 67.4011 106.378 69.0893 104.679C70.9476 102.81 74.0047 102.906 76.0617 103.966C78.1257 105.03 79.5018 106.885 80.5728 108.563C84.4491 114.617 86.5877 121.344 87.7899 128.075C89.3256 128.909 90.9321 129.54 92.6203 129.636C96.2767 129.827 99.9615 127.604 103.873 122.798C104.994 121.419 106.061 120.004 107.069 118.557C105.466 113.872 104.976 108.311 105.583 101.714C106.04 96.7139 107.221 89.4826 112.158 84.4005C113.651 82.8648 115.3 82.3364 116.687 82.9535C117.722 83.4146 118.247 84.3579 118.584 85.1275C121.223 91.1211 119.496 97.7955 117.967 102.292C115.97 108.165 113.222 113.726 109.768 118.887C110.204 119.989 110.714 121.032 111.296 122.018C113.229 125.295 116.545 128.327 120.439 129.881C120.591 129.618 120.747 129.359 120.911 129.1C124.712 122.951 130.479 117.819 137.143 114.652C138.409 114.049 139.909 113.492 141.434 113.925C142.683 114.28 143.559 115.106 143.973 116.315C144.754 118.589 143.661 121.585 142.321 123.408C138.303 128.866 133.795 132.122 128.926 133.09C126.418 133.587 123.936 133.427 121.592 132.796C118.804 138.158 117.275 144.106 115.747 150.67C112.261 165.64 109.314 180.454 106.991 194.7L106.952 194.945C106.856 195.53 106.345 195.952 105.764 195.952ZM122.815 130.618C124.638 131.03 126.542 131.097 128.458 130.718C132.717 129.87 136.728 126.93 140.381 121.972C141.505 120.447 142.094 118.259 141.693 117.092C141.537 116.642 141.257 116.379 140.782 116.244C140.033 116.028 139.09 116.4 138.186 116.83C131.937 119.802 126.532 124.607 122.971 130.37C122.918 130.452 122.868 130.533 122.815 130.618ZM72.9088 105.612C72.118 105.612 71.3484 105.835 70.8094 106.378C69.4298 107.765 70.2809 110.357 70.71 111.407C73.3947 117.968 79.4202 122.639 85.0059 126.341C83.7966 120.61 81.8212 114.957 78.5513 109.854C77.6505 108.449 76.5228 106.903 74.9658 106.101C74.37 105.804 73.6288 105.612 72.9088 105.612ZM115.506 85.1133C115.098 85.1133 114.491 85.4715 113.899 86.078C110.548 89.5287 108.672 94.5647 107.998 101.927C107.505 107.325 107.771 111.964 108.814 115.936C111.665 111.407 113.97 106.58 115.694 101.512C117.917 94.9725 118.137 90.0748 116.389 86.0992C116.236 85.7552 116.002 85.2835 115.719 85.1559C115.655 85.1275 115.584 85.1133 115.506 85.1133Z" fill="black"/>
<path d="M206.608 99.0756C205.987 99.0756 205.462 98.6004 205.406 97.9726C205.349 97.3236 205.817 96.7455 206.466 96.6675L226.092 94.3268C227.99 94.0998 228.656 94.9829 228.887 95.5291C229.064 95.9547 229.032 96.4157 228.795 96.7917C228.199 97.7457 228.121 97.8698 206.679 99.0685C206.651 99.072 206.629 99.0756 206.608 99.0756Z" fill="black"/>
<path d="M127.255 23.7127C127.223 23.7127 127.188 23.7127 127.156 23.7091C126.493 23.6559 125.996 23.0708 126.053 22.4076L127.791 1.10737C127.844 0.444173 128.418 -0.0523252 129.092 0.00441858C129.755 0.0576159 130.252 0.642775 130.195 1.30597L128.457 22.6062C128.404 23.2339 127.876 23.7127 127.255 23.7127Z" fill="black"/>
<path d="M58.0916 40.7323C57.8327 40.7323 57.5703 40.6472 57.3504 40.477L42.8239 29.1211C42.4551 28.8303 41.3273 27.9508 41.6217 26.6315C41.7352 26.135 42.0792 25.7519 42.5509 25.6065C43.5297 25.3015 44.2319 25.0781 58.9144 38.6399C59.3896 39.0796 59.4357 39.8138 59.0137 40.3067C58.7725 40.5869 58.4321 40.7323 58.0916 40.7323Z" fill="black"/>
<path d="M1.20586 100.04C0.54267 100.04 0.00361615 99.5048 6.96587e-05 98.8416C-0.00702332 98.1749 0.528462 97.6323 1.1952 97.6252L22.2933 97.4514H22.3039C22.9671 97.4514 23.5062 97.9869 23.5097 98.6501C23.5168 99.3169 22.9778 99.8595 22.311 99.8666L1.21295 100.04H1.20586Z" fill="black"/>
<path d="M177.491 46.7507C177.176 46.7507 176.864 46.6266 176.626 46.3854C176.161 45.9067 176.172 45.1442 176.651 44.6796L191.195 30.5326C191.674 30.068 192.436 30.0787 192.901 30.5575C193.365 31.0362 193.355 31.7987 192.876 32.2633L178.332 46.4103C178.098 46.6373 177.796 46.7507 177.491 46.7507Z" fill="black"/>
<path d="M194.989 174.389C194.652 174.389 194.316 174.247 194.078 173.974L181.165 159.096C180.729 158.593 180.782 157.83 181.286 157.394C181.789 156.958 182.552 157.011 182.988 157.515L195.901 172.392C196.337 172.896 196.284 173.658 195.78 174.094C195.553 174.293 195.27 174.389 194.989 174.389Z" fill="black"/>
</svg>
