<svg width="235" height="195" viewBox="0 0 235 195" fill="none" xmlns="http://www.w3.org/2000/svg">
<path d="M74.0356 194.022C73.9347 194.022 73.8339 194.012 73.733 193.993C73.1758 193.887 72.7098 193.498 72.5081 192.965L0.105348 2.21427C-0.120415 1.61384 0.0236903 0.936543 0.470413 0.485017C0.92194 0.0286867 1.59443 -0.12023 2.19967 0.10073L233.929 85.5305C234.573 85.7659 235 86.3807 235 87.0676C235 87.7545 234.573 88.3646 233.929 88.5999C231.758 89.3973 180.524 108.14 157.698 109.308C157.347 109.322 157.001 109.231 156.708 109.039C110.422 78.3013 63.809 46.6993 17.9022 14.9387C63.1077 58.7464 132.888 125.87 133.666 126.619C134.3 127.234 134.338 128.238 133.743 128.896L75.2413 193.493C74.9339 193.83 74.4967 194.022 74.0356 194.022ZM5.64375 7.59417L74.6168 189.31L130.26 127.868C120.216 118.209 46.8047 47.5639 5.64375 7.59417ZM13.0219 7.57493C60.9317 40.791 109.673 73.8725 158.063 106.013C176.878 104.836 215.733 91.5829 228.578 87.0436L13.0219 7.57493Z" fill="#FFFEFE"/>
</svg>
